<svg width="20" height="20" viewBox="0 0 20 20" fill="none" xmlns="http://www.w3.org/2000/svg">
<path fill-rule="evenodd" clip-rule="evenodd" d="M1.25 2.5C0.559644 2.5 0 3.05964 0 3.75V16.25C0 16.9404 0.559644 17.5 1.25 17.5H18.75C19.4404 17.5 20 16.9404 20 16.25V3.75C20 3.05964 19.4404 2.5 18.75 2.5H1.25ZM6.36573 6.25C8.05353 6.25 9.32829 7.21958 9.53125 8.90566H7.97163C7.85413 8.10361 7.24523 7.61526 6.40133 7.61526C5.27257 7.61526 4.53193 8.48146 4.53193 10C4.53193 11.5613 5.28325 12.3847 6.39065 12.3847C7.21319 12.3847 7.82564 11.9356 7.97163 11.1549L9.53125 11.1621C9.36389 12.5059 8.23513 13.75 6.36573 13.75C4.41442 13.75 2.96875 12.3812 2.96875 10C2.96875 7.61169 4.43935 6.25 6.36573 6.25ZM13.8657 6.25C15.5535 6.25 16.8283 7.21958 17.0312 8.90566H15.4716C15.3541 8.10361 14.7452 7.61526 13.9013 7.61526C12.7726 7.61526 12.0319 8.48146 12.0319 10C12.0319 11.5613 12.7833 12.3847 13.8906 12.3847C14.7132 12.3847 15.3256 11.9356 15.4716 11.1549L17.0312 11.1621C16.8639 12.5059 15.7351 13.75 13.8657 13.75C11.9144 13.75 10.4688 12.3812 10.4688 10C10.4688 7.61169 11.9393 6.25 13.8657 6.25Z" fill="currentColor"/>
</svg>
