<svg width="20" height="20" viewBox="0 0 20 20" fill="none" xmlns="http://www.w3.org/2000/svg">
<path fill-rule="evenodd" clip-rule="evenodd" d="M16.5625 9.68799V5.04902L12.3256 9.28594C12.2031 9.4084 12.005 9.40883 11.8835 9.28735L10.5564 7.96021C10.4347 7.83854 10.435 7.64102 10.5578 7.51818L14.7947 3.28125H10.1558C9.98344 3.28125 9.84375 3.14148 9.84375 2.96968V1.09282C9.84375 0.920745 9.98486 0.78125 10.1558 0.78125H18.7505C18.8367 0.78125 18.9148 0.816251 18.9711 0.873025C19.0276 0.929677 19.0625 1.00774 19.0625 1.09326V9.68799C19.0625 9.86031 18.9227 10 18.7509 10H16.8741C16.702 10 16.5625 9.85888 16.5625 9.68799ZM3.28101 10.312V14.9541L7.51909 10.716C7.64094 10.5942 7.83854 10.5942 7.96003 10.7157L9.28716 12.0428C9.40884 12.1645 9.40769 12.3629 9.28686 12.4838L5.05189 16.7188H9.68775C9.86007 16.7188 9.99975 16.8585 9.99975 17.0303V18.9072C9.99975 19.0793 9.85864 19.2188 9.68775 19.2188H1.09301C1.00678 19.2188 0.928721 19.1837 0.872407 19.127C0.815939 19.0703 0.781006 18.9923 0.781006 18.9067V10.312C0.781006 10.1397 0.920774 10 1.09258 10H2.96943C3.14151 10 3.28101 10.1411 3.28101 10.312Z" fill="currentColor"/>
</svg>
