<svg width="20" height="20" viewBox="0 0 20 20" fill="none" xmlns="http://www.w3.org/2000/svg">
<path fill-rule="evenodd" clip-rule="evenodd" d="M0.78125 6.71875C0.78125 6.89134 0.921161 7.03125 1.09375 7.03125H2.96875C3.14134 7.03125 3.28125 6.89134 3.28125 6.71875V3.28125H6.71875C6.89134 3.28125 7.03125 3.14134 7.03125 2.96875V1.09375C7.03125 0.921161 6.89134 0.78125 6.71875 0.78125H1.09375C0.921161 0.78125 0.78125 0.921161 0.78125 1.09375V6.71875Z" fill="currentColor"/>
<path fill-rule="evenodd" clip-rule="evenodd" d="M0.78125 13.2812C0.78125 13.1087 0.921161 12.9688 1.09375 12.9688H2.96875C3.14134 12.9688 3.28125 13.1087 3.28125 13.2812V16.7188H6.71875C6.89134 16.7188 7.03125 16.8587 7.03125 17.0312V18.9062C7.03125 19.0788 6.89134 19.2188 6.71875 19.2188H1.09375C0.921161 19.2188 0.78125 19.0788 0.78125 18.9062V13.2812Z" fill="currentColor"/>
<path fill-rule="evenodd" clip-rule="evenodd" d="M19.2188 6.71875C19.2188 6.89134 19.0788 7.03125 18.9062 7.03125H17.0312C16.8587 7.03125 16.7188 6.89134 16.7188 6.71875V3.28125H13.2812C13.1087 3.28125 12.9688 3.14134 12.9688 2.96875V1.09375C12.9688 0.921161 13.1087 0.78125 13.2812 0.78125H18.9062C19.0788 0.78125 19.2188 0.921161 19.2188 1.09375V6.71875Z" fill="currentColor"/>
<path fill-rule="evenodd" clip-rule="evenodd" d="M19.2188 13.2812C19.2188 13.1087 19.0788 12.9688 18.9062 12.9688H17.0312C16.8587 12.9688 16.7188 13.1087 16.7188 13.2812V16.7188H13.2812C13.1087 16.7188 12.9688 16.8587 12.9688 17.0312V18.9062C12.9688 19.0788 13.1087 19.2188 13.2812 19.2188H18.9062C19.0788 19.2188 19.2188 19.0788 19.2188 18.9062V13.2812Z" fill="currentColor"/>
</svg>
