<svg width="20" height="20" viewBox="0 0 20 20" fill="none" xmlns="http://www.w3.org/2000/svg">
<path d="M3.75 3.75C3.75 3.05964 4.30964 2.5 5 2.5H6.25C6.94036 2.5 7.5 3.05964 7.5 3.75V16.25C7.5 16.9404 6.94036 17.5 6.25 17.5H5C4.30964 17.5 3.75 16.9404 3.75 16.25V3.75Z" fill="currentColor"/>
<path d="M12.5 3.75C12.5 3.05964 13.0596 2.5 13.75 2.5H15C15.6904 2.5 16.25 3.05964 16.25 3.75V16.25C16.25 16.9404 15.6904 17.5 15 17.5H13.75C13.0596 17.5 12.5 16.9404 12.5 16.25V3.75Z" fill="currentColor"/>
</svg>
