<svg width="20" height="20" viewBox="0 0 20 20" fill="none" xmlns="http://www.w3.org/2000/svg">
<path d="M1.40623 10.9531C1.23436 10.9531 1.09373 11.0937 1.10936 11.2656C1.10936 11.2656 1.10936 11.5312 1.14061 11.7968C1.56248 16.3125 5.37498 19.8593 9.99998 19.8593C14.9219 19.8593 18.9062 15.875 18.9062 10.9531C18.9062 6.03122 14.9219 2.04684 9.99998 2.04684V4.54684C13.5312 4.54684 16.4062 7.42184 16.4062 10.9531C16.4062 14.4843 13.5312 17.3593 9.99998 17.3593C6.70311 17.3593 3.99998 14.875 3.64061 11.6875C3.60936 11.4531 3.60936 11.2656 3.60936 11.2656C3.60936 11.0937 3.45311 10.9531 3.28123 10.9531H1.40623ZM5.56248 3.12497C5.42186 3.23434 5.42186 3.39059 5.56248 3.49997L9.74998 6.56247C9.89061 6.67184 9.99998 6.60934 9.99998 6.43747V0.18747C9.99998 0.0155948 9.89061 -0.0469052 9.74998 0.0624698L5.56248 3.12497Z" fill="currentColor"/>
</svg>
