<svg width="20" height="20" viewBox="0 0 20 20" fill="none" xmlns="http://www.w3.org/2000/svg">
<g>
<path d="M20 10C20 14.9219 16.0156 18.9062 11.0938 18.9062C9.23439 18.9062 7.46877 18.3281 5.98439 17.2969C5.71877 17.1094 5.46877 16.9062 5.46877 16.9062C5.32814 16.7969 5.31252 16.6094 5.43752 16.4688L6.67189 15.0625C6.78127 14.9375 6.98439 14.9219 7.12502 15.0156C7.12502 15.0156 7.39064 15.2344 7.67189 15.4219C8.68752 16.0625 9.85939 16.4062 11.0938 16.4062C14.625 16.4062 17.5 13.5312 17.5 10C17.5 6.46875 14.625 3.59375 11.0938 3.59375C7.56252 3.59375 4.68752 6.46875 4.68752 10H6.56252C6.73439 10 6.79689 10.1094 6.68752 10.25L3.62502 14.4375C3.53127 14.5781 3.35939 14.5781 3.25002 14.4375L0.187516 10.25C0.0781405 10.1094 0.140641 10 0.312516 10H2.18752C2.18752 5.07812 6.17189 1.09375 11.0938 1.09375C16.0156 1.09375 20 5.07812 20 10Z" fill="currentColor"/>
<path d="M10.1517 7.24343H8.92919L7.5842 8.07972V9.21964L8.80401 8.4739H8.83597V12.698H10.1517V7.24343Z" fill="currentColor"/>
<path d="M13.2384 12.8311C14.6659 12.8338 15.5422 11.7791 15.5448 9.97869C15.5475 8.18892 14.6659 7.16886 13.2384 7.16886C11.8108 7.16886 10.9372 8.18626 10.9346 9.97869C10.9292 11.7738 11.8108 12.8311 13.2384 12.8311ZM13.2384 11.7525C12.6711 11.7525 12.2849 11.1825 12.2902 9.97869C12.2929 8.79883 12.6737 8.23952 13.2384 8.23952C13.8057 8.23952 14.1865 8.79883 14.1892 9.97869C14.1918 11.1825 13.8083 11.7525 13.2384 11.7525Z" fill="currentColor"/>
</g>
</svg>
