<svg width="20" height="20" viewBox="0 0 20 20" fill="none" xmlns="http://www.w3.org/2000/svg">
<path d="M19.875 8.29688C19.7969 8.1875 19.7031 8.125 19.5938 8.09375L17.2188 7.73438C17.0938 7.3125 16.9062 6.89062 16.6719 6.4375L17.375 5.53125C17.6875 5.14062 17.9062 4.85938 18.0312 4.67188C18.1094 4.5625 18.1562 4.46875 18.1562 4.35938C18.1562 4.25 18.125 4.15625 18.0312 4.07812C17.75 3.64062 17.0469 2.89062 15.9219 1.84375C15.8125 1.76562 15.7031 1.71875 15.5781 1.71875C15.4531 1.71875 15.3438 1.76562 15.2656 1.84375L13.4375 3.28125C13.0938 3.09375 12.7031 2.92188 12.2656 2.76562L11.9062 0.390625C11.875 0.28125 11.8281 0.1875 11.7344 0.109375C11.6406 0.03125 11.5469 0 11.4375 0H8.5625C8.29688 0 8.14062 0.125 8.09375 0.359375C7.98438 0.796875 7.85938 1.60937 7.70312 2.78125C7.3125 2.9375 6.92188 3.10938 6.53125 3.29688L4.73438 1.89062C4.625 1.8125 4.51562 1.76562 4.39062 1.76562C4.20312 1.76562 3.8125 2.07812 3.17188 2.70312C2.53125 3.32812 2.125 3.79688 1.89062 4.10938C1.8125 4.1875 1.76562 4.28125 1.76562 4.40625C1.76562 4.53125 1.79688 4.625 1.89062 4.70312C2.48438 5.40625 2.95312 6 3.29688 6.5C3.0625 6.89062 2.89062 7.29688 2.79688 7.71875L0.34375 8.0625C0.234375 8.09375 0.15625 8.14062 0.09375 8.23438C0.03125 8.32812 0 8.42188 0 8.53125V11.4219C0 11.5469 0.03125 11.6562 0.09375 11.7344C0.15625 11.8125 0.25 11.8594 0.390625 11.8906L2.76562 12.25C2.875 12.6719 3.03125 13.0937 3.26562 13.5469L2.5625 14.4531L1.90625 15.3594C1.85938 15.4375 1.82812 15.5312 1.82812 15.6562C1.82812 15.7812 1.85938 15.875 1.90625 15.9531C2.25 16.4219 2.95312 17.1562 4.0625 18.1406C4.14062 18.2188 4.25 18.2656 4.375 18.2656C4.5 18.2656 4.625 18.2344 4.71875 18.1875L6.51562 16.7812C6.90625 16.9688 7.29688 17.125 7.6875 17.25L8.07812 19.6406C8.07812 19.7656 8.125 19.875 8.21875 19.9375C8.3125 20 8.42188 20.0312 8.54688 20.0312H11.4375C11.6719 20.0312 11.8281 19.9062 11.9062 19.6719C12.0312 19.2344 12.1562 18.4219 12.25 17.25C12.6719 17.125 13.0625 16.9688 13.4688 16.7812L15.2656 18.1875C15.3906 18.2344 15.5 18.2656 15.5781 18.2656C15.7812 18.2656 16.2031 17.9531 16.8281 17.3438C17.4531 16.7344 17.875 16.2656 18.1094 15.9531C18.1875 15.875 18.2188 15.7812 18.2031 15.6562C18.1875 15.5312 18.1406 15.4219 18.0625 15.3281C17.4375 14.5469 16.9844 13.9375 16.6875 13.5312C16.8438 13.2188 17.0156 12.8281 17.1875 12.3594L19.5625 11.9688C19.6719 11.9375 19.75 11.8906 19.8438 11.8125C19.9219 11.7344 19.9531 11.625 19.9219 11.5V8.57812C19.9844 8.46875 19.9688 8.375 19.875 8.29688ZM12.3438 12.375C11.6875 13.0312 10.9062 13.3594 10 13.3594C9.09375 13.3594 8.3125 13.0156 7.65625 12.3438C7 11.6719 6.6875 10.8906 6.6875 10C6.6875 9.10938 7 8.3125 7.64062 7.65625C8.28125 7 9.0625 6.65625 9.98438 6.65625C10.9062 6.65625 11.7031 6.96875 12.3438 7.60938C12.9844 8.25 13.3125 9.03125 13.3125 9.98438C13.3125 10.9375 13 11.7188 12.3438 12.375Z" fill="currentColor"/>
</svg>
