<svg width="20" height="20" viewBox="0 0 20 20" fill="none" xmlns="http://www.w3.org/2000/svg">
<path d="M13.4189 15.0057C13.5487 15.1099 13.738 15.0946 13.8439 14.9661C14.9566 13.6162 15.625 11.8862 15.625 10.0001C15.625 8.11402 14.9566 6.38404 13.8439 5.03408C13.738 4.90563 13.5487 4.89027 13.4189 4.99451L11.9602 6.16627C11.8186 6.28005 11.8042 6.48975 11.9195 6.63014C12.6728 7.5471 13.125 8.72079 13.125 10.0001C13.125 11.2794 12.6728 12.4531 11.9195 13.3701C11.8042 13.5104 11.8186 13.7201 11.9602 13.8339L13.4189 15.0057Z" fill="currentColor"/>
<path d="M3.75 13.7501L1.14619 13.5331C0.498328 13.4791 0 12.9375 0 12.2874V7.71276C0 7.06265 0.498328 6.52107 1.14619 6.46708L3.75 6.2501L8.98457 2.06245C9.39379 1.73507 10 2.02642 10 2.55049V17.4497C10 17.9738 9.39379 18.2651 8.98457 17.9378L3.75 13.7501Z" fill="currentColor"/>
</svg>
