<svg width="20" height="20" viewBox="0 0 20 20" fill="none" xmlns="http://www.w3.org/2000/svg">
<path fill-rule="evenodd" clip-rule="evenodd" d="M13.8353 10.0001L11.471 7.63577C11.3489 7.51373 11.3489 7.31587 11.471 7.19383L12.8187 5.84607C12.9408 5.72403 13.1386 5.72403 13.2607 5.84607L15.625 8.2104L17.9893 5.84607C18.1114 5.72403 18.3092 5.72403 18.4313 5.84607L19.779 7.19383C19.9011 7.31587 19.9011 7.51373 19.779 7.63577L17.4147 10.0001L19.779 12.3644C19.9011 12.4865 19.9011 12.6843 19.779 12.8064L18.4313 14.1541C18.3092 14.2762 18.1114 14.2762 17.9893 14.1541L15.625 11.7898L13.2607 14.1541C13.1386 14.2762 12.9408 14.2762 12.8187 14.1541L11.471 12.8064C11.3489 12.6843 11.3489 12.4865 11.471 12.3644L13.8353 10.0001Z" fill="currentColor"/>
<path d="M3.75 13.7501L1.14619 13.5331C0.498328 13.4791 0 12.9375 0 12.2874V7.71276C0 7.06265 0.498328 6.52107 1.14619 6.46708L3.75 6.2501L8.98457 2.06245C9.39379 1.73507 10 2.02642 10 2.55049V17.4497C10 17.9738 9.39379 18.2651 8.98457 17.9378L3.75 13.7501Z" fill="currentColor"/>
</svg>
